<?xml version="1.0" encoding="UTF-8" standalone="no"?>
<!-- Created with Inkscape (http://www.inkscape.org/) -->

<svg
   width="200"
   height="266"
   viewBox="0 0 52.916665 70.379211"
   version="1.1"
   id="svg1"
   inkscape:version="1.4.2 (f4327f4, 2025-05-13)"
   sodipodi:docname="esquina2.svg"
   xmlns:inkscape="http://www.inkscape.org/namespaces/inkscape"
   xmlns:sodipodi="http://sodipodi.sourceforge.net/DTD/sodipodi-0.dtd"
   xmlns:xlink="http://www.w3.org/1999/xlink"
   xmlns="http://www.w3.org/2000/svg"
   xmlns:svg="http://www.w3.org/2000/svg">
  <sodipodi:namedview
     id="namedview1"
     pagecolor="#ffffff"
     bordercolor="#111111"
     borderopacity="1"
     inkscape:showpageshadow="0"
     inkscape:pageopacity="0"
     inkscape:pagecheckerboard="1"
     inkscape:deskcolor="#d1d1d1"
     inkscape:document-units="mm"
     showguides="false"
     inkscape:zoom="2.0334082"
     inkscape:cx="72.538313"
     inkscape:cy="91.717934"
     inkscape:window-width="1920"
     inkscape:window-height="1009"
     inkscape:window-x="-8"
     inkscape:window-y="-8"
     inkscape:window-maximized="1"
     inkscape:current-layer="layer1" />
  <defs
     id="defs1">
    <linearGradient
       id="linearGradient2"
       inkscape:collect="always">
      <stop
         style="stop-color:#76d8cc;stop-opacity:1;"
         offset="0"
         id="stop2" />
      <stop
         style="stop-color:#1644af;stop-opacity:1;"
         offset="1"
         id="stop3" />
    </linearGradient>
    <linearGradient
       inkscape:collect="always"
       xlink:href="#linearGradient2"
       id="linearGradient3"
       x1="1.4583331"
       y1="26.458334"
       x2="51.458336"
       y2="26.458334"
       gradientUnits="userSpaceOnUse"
       gradientTransform="translate(-0.62826606,-0.45256862)" />
  </defs>
  <g
     inkscape:label="Capa 1"
     inkscape:groupmode="layer"
     id="layer1">
    <path
       id="path1"
       style="fill:url(#linearGradient3);stroke:#cab619;stroke-width:0.278486;stroke-opacity:1"
       d="M 25.830161,1.1450514 A 24.860758,24.860758 0 0 0 0.96914598,26.005549 24.860758,24.860758 0 0 0 11.700791,46.461148 19.027174,19.027174 0 0 0 11.52044,49.074425 19.027174,19.027174 0 0 0 30.547703,68.101687 19.027174,19.027174 0 0 0 49.574448,49.074425 19.027174,19.027174 0 0 0 46.855234,39.271922 24.860758,24.860758 0 0 0 50.690659,26.005549 24.860758,24.860758 0 0 0 25.830161,1.1450514 Z" />
  </g>
</svg>
