<?xml version="1.0" encoding="UTF-8" standalone="no"?>
<!-- Created with Inkscape (http://www.inkscape.org/) -->

<svg
   width="1024"
   height="1024"
   viewBox="0 0 270.93333 270.93333"
   version="1.1"
   id="svg1"
   xml:space="preserve"
   inkscape:version="1.4.2 (f4327f4, 2025-05-13)"
   sodipodi:docname="Logo v2.svg"
   xmlns:inkscape="http://www.inkscape.org/namespaces/inkscape"
   xmlns:sodipodi="http://sodipodi.sourceforge.net/DTD/sodipodi-0.dtd"
   xmlns:xlink="http://www.w3.org/1999/xlink"
   xmlns="http://www.w3.org/2000/svg"
   xmlns:svg="http://www.w3.org/2000/svg"><sodipodi:namedview
     id="namedview1"
     pagecolor="#090909"
     bordercolor="#111111"
     borderopacity="1"
     inkscape:showpageshadow="0"
     inkscape:pageopacity="0"
     inkscape:pagecheckerboard="1"
     inkscape:deskcolor="#d1d1d1"
     inkscape:document-units="mm"
     showguides="false"
     inkscape:zoom="0.68862935"
     inkscape:cx="407.33088"
     inkscape:cy="526.408"
     inkscape:window-width="1920"
     inkscape:window-height="991"
     inkscape:window-x="-9"
     inkscape:window-y="-9"
     inkscape:window-maximized="1"
     inkscape:current-layer="layer1" /><defs
     id="defs1"><linearGradient
       id="linearGradient1"
       inkscape:collect="always"><stop
         style="stop-color:#494900;stop-opacity:1;"
         offset="0"
         id="stop1" /><stop
         style="stop-color:#ffffff;stop-opacity:1;"
         offset="1"
         id="stop2" /></linearGradient><linearGradient
       id="linearGradient13"
       inkscape:collect="always"><stop
         style="stop-color:#262608;stop-opacity:1;"
         offset="0"
         id="stop15" /><stop
         style="stop-color:#6d6d0d;stop-opacity:1;"
         offset="0.20618556"
         id="stop13" /><stop
         style="stop-color:#e8e8df;stop-opacity:1;"
         offset="1"
         id="stop14" /></linearGradient><linearGradient
       id="linearGradient4"
       inkscape:collect="always"><stop
         style="stop-color:#c8f4e1;stop-opacity:1;"
         offset="0"
         id="stop5" /><stop
         style="stop-color:#3a88b5;stop-opacity:1;"
         offset="0.50171822"
         id="stop7" /><stop
         style="stop-color:#11137d;stop-opacity:1;"
         offset="1"
         id="stop6" /></linearGradient><linearGradient
       inkscape:collect="always"
       xlink:href="#linearGradient4"
       id="linearGradient10"
       x1="216.28897"
       y1="54.644352"
       x2="54.644352"
       y2="216.28897"
       gradientUnits="userSpaceOnUse" /><linearGradient
       inkscape:collect="always"
       xlink:href="#linearGradient13"
       id="linearGradient14"
       x1="85.533554"
       y1="185.39977"
       x2="185.39977"
       y2="85.533554"
       gradientUnits="userSpaceOnUse"
       spreadMethod="pad" /><linearGradient
       inkscape:collect="always"
       xlink:href="#linearGradient1"
       id="linearGradient2"
       x1="53.587311"
       y1="217.34601"
       x2="217.34601"
       y2="53.587307"
       gradientUnits="userSpaceOnUse" /></defs><g
     inkscape:label="Capa 1"
     inkscape:groupmode="layer"
     id="layer1"><circle
       style="mix-blend-mode:multiply;fill:url(#linearGradient10);fill-rule:nonzero;stroke:url(#linearGradient2);stroke-width:2.98979167;stroke-dasharray:none;stroke-opacity:1;opacity:1"
       id="path1"
       cx="135.46666"
       cy="135.46666"
       r="114.3" /><path
       style="fill:url(#linearGradient14);stroke:none;stroke-opacity:1"
       d="m 108.63762,206.56326 c -1.03957,-4.17725 0.26995,-6.4656 4.63722,-5.60576 6.32231,0.20957 12.8613,-4.61504 12.05728,-11.41534 0.21579,-14.93379 0.0879,-29.87034 0.1253,-44.8054 C 112.8538,143.99112 98.203699,143.89633 88.946341,133.95881 79.97319,122.47614 77.057207,107.57914 74.618989,93.534946 73.105765,86.107578 74.306632,77.123557 67.916179,71.692948 62.41983,68.539477 64.817543,62.00369 71.121292,64.266593 c 7.884038,1.144007 14.568952,6.867324 18.873085,13.305839 7.497385,14.033559 4.830978,30.740668 10.261593,45.364118 3.7176,8.94421 14.02138,11.88046 22.90596,11.71798 3.6114,1.26988 1.94059,-2.98747 2.29166,-5.12916 -0.0428,-16.49308 -0.0856,-32.986155 -0.1284,-49.479233 -2.56079,-6.971062 -10.65639,-8.241387 -17.19792,-8.202084 0.24824,-2.089279 -0.68162,-5.331099 0.25506,-6.746875 18.12716,0 36.25433,0 54.3815,0 10e-4,2.48533 0.76946,5.534757 -2.69451,5.470322 -5.79817,1.977817 -14.46934,4.707669 -14.11436,12.273363 -0.22807,17.306217 -0.0848,34.615447 -0.12446,51.923047 9.53661,-0.0431 21.04152,-2.49529 24.91693,-12.43299 3.82756,-13.11692 0.79924,-27.677822 6.8289,-40.315115 4.27265,-9.865208 13.69905,-19.222198 25.28092,-17.659816 9.59795,2.82941 -5.33955,9.532224 -4.74755,15.42996 -2.27306,15.079366 1.54625,31.691031 -6.94278,45.352081 -8.30062,14.207 -25.73373,19.25041 -41.24126,19.57666 -3.12825,-0.47961 -4.79868,0.44771 -3.97521,3.78185 0.0398,14.48567 -0.34557,28.98393 0.15797,43.45952 0.89796,7.39217 9.95508,8.07161 14.80334,10.34384 -0.20229,2.1418 1.07306,5.76125 -2.41834,4.61394 -16.6152,-0.132 -33.2673,0.33284 -49.8558,-0.35058 z"
       id="path13" /></g></svg>
